<svg width="187.75" height="187.75" xmlns="http://www.w3.org/2000/svg">
 <metadata id="metadata3021">image/svg+xml</metadata>

 <g>
  <title>background</title>
  <rect fill="none" id="canvas_background" height="402" width="582" y="-1" x="-1"/>
 </g>
 <g>
  <title>Layer 1</title>
  <g id="g2986">
   <circle fill="#3366ff" id="circle2993" r="93.875" cy="93.874999" cx="93.875004"/>
   <g id="g2995">
    <path fill="#ffffff" id="path2997" d="m43.401014,78.008999l-13.234,0c0.41,-5.983 2.607,-10.789 6.591,-14.414c3.983,-3.624 8.762,-5.437 14.336,-5.437c6.121,0 11.327,1.734 15.619,5.202c4.291,3.469 6.438,7.646 6.438,12.531c0,5.33 -2.634,10.147 -7.899,14.453c3.351,2.122 5.804,4.338 7.361,6.647c1.556,2.31 2.333,5.073 2.333,8.29c0,6.126 -2.035,11.036 -6.104,14.732c-4.07,3.696 -9.456,5.543 -16.157,5.543c-6.224,0 -11.379,-1.77 -15.465,-5.309c-4.086,-3.539 -6.609,-8.454 -7.565,-14.747l13.542,0c1.607,6.225 4.701,9.336 9.284,9.336c2.291,0 4.223,-0.814 5.796,-2.443c1.573,-1.628 2.359,-3.644 2.359,-6.044c0,-2.949 -0.949,-5.357 -2.847,-7.227c-1.898,-1.87 -4.334,-2.804 -7.309,-2.804l-2.411,0l0,-11.028l1.437,0c3.111,0 5.608,-0.767 7.489,-2.301c1.88,-1.534 2.821,-3.562 2.821,-6.085c0,-2.284 -0.744,-4.236 -2.231,-5.855c-1.487,-1.618 -3.309,-2.429 -5.463,-2.429c-5.028,0.002 -7.935,3.131 -8.721,9.389z"/>
    <path fill="#ffffff" id="path2999" d="m91.608014,59.285999l17.224,0l-16.175,22.057c2.224,-0.41 4.244,-0.615 6.059,-0.615c5.648,0 10.519,2.103 14.608,6.309c4.092,4.206 6.137,9.217 6.137,15.029c0,6.771 -2.411,12.38 -7.232,16.824c-4.822,4.446 -10.926,6.668 -18.312,6.668c-6.84,0 -12.49,-2.18 -16.953,-6.54c-4.462,-4.359 -6.694,-9.907 -6.694,-16.645c0,-4.855 1.111,-9.831 3.334,-14.927c2.223,-5.095 4.685,-9.54 7.386,-13.336l10.618,-14.824zm12.926,42.703c0,-2.947 -0.943,-5.425 -2.828,-7.43c-1.886,-2.006 -4.2,-3.009 -6.942,-3.009c-2.983,0 -5.503,1.021 -7.56,3.061c-2.057,2.04 -3.085,4.533 -3.085,7.48c0,2.914 1.02,5.374 3.06,7.379c2.04,2.006 4.568,3.009 7.585,3.009c2.674,0 4.971,-1.028 6.891,-3.085c1.92,-2.057 2.879,-4.525 2.879,-7.405z"/>
    <path fill="#ffffff" id="path3001" d="m137.300014,58.363999c7.762,0 13.951,2.975 18.568,8.925c4.616,5.95 6.925,13.9 6.925,23.852c0,11.627 -2.565,20.253 -7.694,25.878c-5.129,5.626 -11.062,8.438 -17.799,8.438c-7.693,0 -13.926,-3 -18.697,-9.002c-4.77,-6.001 -7.154,-13.892 -7.154,-23.672c0,-10.395 2.334,-18.73 7.001,-25.006c4.668,-6.274 10.814,-9.412 18.44,-9.412l0.41,0l0,-0.001zm11.746,34.007c0,-6.634 -1.061,-11.849 -3.18,-15.645c-2.121,-3.796 -4.977,-5.693 -8.566,-5.693c-3.762,0 -6.719,1.897 -8.874,5.693c-2.154,3.796 -3.231,9.079 -3.231,15.85c0,6.155 1.094,11.079 3.283,14.772c2.188,3.693 5.061,5.54 8.617,5.54c3.624,0 6.522,-1.847 8.694,-5.54c2.171,-3.692 3.257,-8.685 3.257,-14.977z"/>
   </g>
  </g>
 </g>
</svg>
